<?xml version="1.0" encoding="UTF-8" standalone="no"?>
<!DOCTYPE svg PUBLIC "-//W3C//DTD SVG 1.1//EN" "http://www.w3.org/Graphics/SVG/1.1/DTD/svg11.dtd">
<svg width="100%" height="100%" viewBox="0 0 513 512" version="1.1" xmlns="http://www.w3.org/2000/svg" xmlns:xlink="http://www.w3.org/1999/xlink" xml:space="preserve" xmlns:serif="http://www.serif.com/" style="fill-rule:evenodd;clip-rule:evenodd;stroke-linejoin:round;stroke-miterlimit:2;">
    <path d="M259.946,479.943C251.203,479.943 242.746,479.771 234.746,479.371C202.803,478.8 172.346,476.229 149.032,472.057C126.746,468.114 102.918,462.629 79.889,449.429C54.46,434.914 34.518,413.429 18.86,383.771C-0.74,346.743 -0.968,301.029 0.575,269.886C2.289,235.029 10.918,199.829 24.803,170.8C40.06,139.143 59.318,112.343 82.06,91.2C101.603,73.029 123.832,58.971 148.06,49.314C166.289,42.057 185.66,37.314 205.66,35.257C219.318,33.143 237.032,32.057 256.975,32.057C292.575,32.057 341.146,35.886 370.803,46.629C392.289,54.4 424.575,73.257 442.003,92.857C463.603,117.143 480.289,143.886 491.66,172.343C503.032,201.086 510.118,235.771 511.489,270.171C512.403,292.057 511.946,310.743 510.232,327.257C507.946,348.571 503.546,366.571 496.632,382.286C483.603,412.114 466.403,433.657 444.06,448.114C423.603,461.371 401.889,466.514 383.318,469.829C355.089,474.857 305.889,479.943 259.946,479.943C260.003,479.943 260.003,479.943 259.946,479.943Z" style="fill:rgb(36,69,121);fill-rule:nonzero;"/>
    <path d="M487.546,271.086C486.232,239.257 479.775,207.371 469.432,181.2C457.889,152.286 441.203,127.943 424.118,108.8C409.775,92.686 381.146,75.886 362.632,69.2C324.632,55.429 241.318,52.857 204.918,59.771C162.86,67.714 198.918,453.714 235.546,455.429C286.86,457.771 347.203,451.886 379.203,446.171C414.575,439.886 450.346,428.4 474.689,372.629C487.26,343.886 489.032,307.371 487.546,271.086Z" style="fill:rgb(100,203,178);fill-rule:nonzero;"/>
    <path d="M51.718,282.343C54.003,186.914 136.689,86.457 235.775,88.857C334.86,91.257 412.689,195.543 410.403,291.029C408.118,386.457 326.632,436.971 227.546,434.571C128.46,432.171 49.546,377.771 51.718,282.343Z" style="fill:rgb(252,238,184);fill-rule:nonzero;"/>
    <path d="M446.518,271.086C444.975,239.257 437.146,207.371 424.575,181.2C410.632,152.286 393.203,127.943 372.575,108.8C355.203,92.686 335.489,80.171 314.06,71.657C289.489,61.886 263.089,57.371 235.489,58.171C207.889,57.371 181.489,61.886 156.918,71.657C135.489,80.171 115.718,92.686 98.403,108.8C77.832,127.943 60.346,152.286 46.403,181.2C33.832,207.371 26.06,239.257 24.46,271.086C22.689,307.371 24.803,343.886 40.003,372.629C69.432,428.4 110.746,440.914 153.146,448.457C177.032,452.743 206.86,454.914 235.432,455.429C264.003,454.914 293.775,452.743 317.718,448.457C360.175,440.914 401.432,428.4 430.86,372.629C446.175,343.886 448.289,307.371 446.518,271.086ZM390.003,351.429C380.575,369.257 369.832,381.2 356.118,389.029C355.146,389.6 354.175,390.114 353.203,390.629C361.775,375.2 367.66,357.6 370.346,338.686C372.918,320.629 372.575,301.943 369.318,283.143C365.946,263.714 359.603,244.629 350.346,226.4L308.918,246.857C322.86,274.457 328.403,304.8 324.46,332.286C320.86,357.771 309.432,379.257 292.346,392.8C276.746,405.143 262.803,408.343 251.146,409.2C247.26,409.371 243.375,409.486 239.375,409.6C238.003,409.6 236.689,409.657 235.432,409.657C207.318,409.143 181.032,406.914 161.375,403.429C145.318,400.571 128.575,396.857 114.86,389.029C101.146,381.2 90.403,369.257 80.975,351.429C69.318,329.371 69.489,296.229 70.632,273.257C71.889,247.429 78.118,221.657 88.118,200.8C99.603,177.029 113.66,157.257 130.003,142.057C143.146,129.886 157.946,120.457 174.06,114.057C191.26,107.2 209.832,103.771 229.26,103.771C230.86,103.771 232.46,103.771 234.06,103.829L235.375,103.886L236.689,103.829C238.289,103.771 239.889,103.771 241.489,103.771C260.975,103.771 279.546,107.257 296.632,114.057C312.803,120.457 327.603,129.886 340.746,142.114C357.089,157.314 371.203,177.086 382.632,200.857C392.632,221.771 398.86,247.486 400.118,273.314C401.432,296.286 401.603,329.429 390.003,351.429Z" style="fill:rgb(65,178,166);fill-rule:nonzero;"/>
    <path d="M192.689,328.971C175.032,328.971 160.689,314.629 160.689,296.971C160.689,293.429 163.546,290.571 167.089,290.571C170.632,290.571 173.489,293.429 173.489,296.971C173.489,307.6 182.06,316.171 192.689,316.171C203.318,316.171 211.889,307.6 211.889,296.971C211.889,293.429 214.746,290.571 218.289,290.571C221.832,290.571 224.689,293.429 224.689,296.971C224.689,314.629 210.346,328.971 192.689,328.971ZM109.489,245.771C109.489,256.4 118.06,264.971 128.689,264.971C139.318,264.971 147.889,256.4 147.889,245.771C147.889,235.143 139.318,226.571 128.689,226.571C118.118,226.571 109.489,235.143 109.489,245.771ZM237.489,245.771C237.489,256.4 246.06,264.971 256.689,264.971C267.318,264.971 275.889,256.4 275.889,245.771C275.889,235.143 267.318,226.571 256.689,226.571C246.118,226.571 237.489,235.143 237.489,245.771Z" style="fill:rgb(36,69,121);fill-rule:nonzero;"/>
    <path d="M103.089,277.771L77.489,277.771C70.403,277.771 64.689,283.486 64.689,290.571C64.689,297.657 70.403,303.371 77.489,303.371L103.089,303.371C110.175,303.371 115.889,297.657 115.889,290.571C115.889,283.486 110.175,277.771 103.089,277.771ZM307.889,277.771L282.289,277.771C275.203,277.771 269.489,283.486 269.489,290.571C269.489,297.657 275.203,303.371 282.289,303.371L307.889,303.371C314.975,303.371 320.689,297.657 320.689,290.571C320.689,283.486 314.975,277.771 307.889,277.771Z" style="fill:rgb(254,157,127);fill-rule:nonzero;"/>
</svg>
